<svg xmlns="http://www.w3.org/2000/svg" xmlns:xlink="http://www.w3.org/1999/xlink" width="501.73117" height="96" viewBox="0 0 501.73117 96"><defs><style>.cls-1{fill:url(#linear-gradient);}.cls-2{fill:url(#linear-gradient-2);}.cls-3{fill:url(#linear-gradient-3);}.cls-4{fill:url(#linear-gradient-4);}.cls-5{fill:url(#linear-gradient-5);}.cls-6{fill:url(#linear-gradient-6);}.cls-7{fill:url(#linear-gradient-7);}.cls-8{fill:url(#linear-gradient-8);}.cls-9{fill:url(#linear-gradient-9);}.cls-10{fill:url(#linear-gradient-10);}</style><linearGradient id="linear-gradient" x1="148.87659" y1="98" x2="148.87659" y2="2" gradientTransform="matrix(1, 0, 0, -1, 0, 98)" gradientUnits="userSpaceOnUse"><stop offset="0.41899" stop-color="#26a4fe"/><stop offset="1" stop-color="#38e9fd"/></linearGradient><linearGradient id="linear-gradient-2" x1="71.14906" x2="71.14906" xlink:href="#linear-gradient"/><linearGradient id="linear-gradient-3" x1="256.94083" x2="256.94083" xlink:href="#linear-gradient"/><linearGradient id="linear-gradient-4" x1="356.35901" x2="356.35901" xlink:href="#linear-gradient"/><linearGradient id="linear-gradient-5" x1="457.29527" x2="457.29527" xlink:href="#linear-gradient"/><linearGradient id="linear-gradient-6" x1="139.87659" y1="2" x2="139.87659" y2="98" gradientTransform="matrix(1, 0, 0, -1, 0, 98)" gradientUnits="userSpaceOnUse"><stop offset="0.3" stop-color="#ff9ddb"/><stop offset="1" stop-color="#ffc8ff"/></linearGradient><linearGradient id="linear-gradient-7" x1="62.39265" y1="2" x2="62.39265" y2="98" xlink:href="#linear-gradient-6"/><linearGradient id="linear-gradient-8" x1="247.94083" y1="2" x2="247.94083" y2="98" xlink:href="#linear-gradient-6"/><linearGradient id="linear-gradient-9" x1="347.35901" y1="2" x2="347.35901" y2="98" xlink:href="#linear-gradient-6"/><linearGradient id="linear-gradient-10" x1="448.29527" y1="2" x2="448.29527" y2="98" xlink:href="#linear-gradient-6"/></defs><g id="Layer_2" data-name="Layer 2"><g id="Layer_1-2" data-name="Layer 1"><g id="Layer_2-2" data-name="Layer 2"><g id="Layer_1-2-2" data-name="Layer 1-2"><path class="cls-1" d="M150.66434,0,102.89381,96h23.0974l8.85986-19h39.00831V96h21V0Zm23.195,57H145.02466l16.31393-35h12.52079Z"/><path class="cls-2" d="M40.91584.094,40.86885,0H8.75641l.047.094L13.70913,10h31.925ZM103.32044,0,74.57951,60.5341,71.98347,66h-.53123L62.22781,46.64778,57.63262,37H27.71918l4.70242,9.47252L56.97819,96h28.969L133.5417,0ZM52.64707,28l-4.29262-9H19.55424l4.46321,9Z"/><path class="cls-3" d="M291.23193,11.29412q9.78951,11.29368,9.79035,36.70545,0,25.54816-9.74146,36.77322Q281.54021,96.00086,261.6636,96H212.85938V0h48.80419Q281.442,0,291.23193,11.29412ZM234.85938,24V73H256.1391q9.94808,0,14.92425-5.78865,4.974-5.78565,4.97532-18.71178,0-12.92269-4.97532-18.71092Q266.088,24.00173,256.13913,24Z"/><polygon class="cls-4" points="339.859 37 390.859 37 390.859 57 340.859 57 340.859 74 394.859 74 394.859 96 317.859 96 317.859 0 392.859 0 392.859 22 339.859 22 339.859 37"/><path class="cls-5" d="M501.73117,96H475.77441L462.20255,65H434.85938V96h-22V0h59.6401q14.51578,0,20.992,7.79848,6.47415,7.79892,6.47369,23.79777,0,12.23685-3.92355,18.48783a20.37689,20.37689,0,0,1-11.18232,8.67261v1.07485ZM472.1145,41.64162q1.86973-2.35881,1.87015-7.20725,0-4.84551-1.87015-7.14119Q470.24477,25.00209,466.025,25H434.85938V44H466.025Q470.24347,44,472.1145,41.64162Z"/><path class="cls-6" d="M141.66434,0,93.89381,96h23.0974l8.85987-19h39.0083V96h21V0Zm23.195,57H136.02466l16.31393-35h12.52079Z"/><path class="cls-7" d="M32.15944.094,32.11244,0H0L.047.094,4.95272,10h31.925ZM94.564,0,65.8231,60.5341,63.22707,66h-.53123L53.47141,46.64778,48.87621,37H18.96277l4.70242,9.47252L48.22179,96h28.969l47.5945-96ZM43.89067,28,39.598,19H10.79784l4.4632,9Z"/><path class="cls-8" d="M282.23193,11.29412q9.78951,11.29368,9.79035,36.70545,0,25.54816-9.74146,36.77322Q272.54021,96.00086,252.66359,96H203.85938V0h48.80421Q272.442,0,282.23193,11.29412ZM225.85938,24V73h21.27973q9.94808,0,14.92424-5.78865,4.974-5.78565,4.97532-18.71178,0-12.92269-4.97532-18.71092Q257.088,24.00173,247.13911,24Z"/><polygon class="cls-9" points="331.859 37 382.859 37 382.859 57 331.859 57 331.859 74 385.859 74 385.859 96 308.859 96 308.859 0 384.859 0 384.859 22 331.859 22 331.859 37"/><path class="cls-10" d="M492.73117,96H467.77441L454.20255,65H426.85938V96h-23V0h59.6401q14.51578,0,20.992,7.79848,6.47415,7.79892,6.47369,23.79777,0,12.23685-3.92355,18.48783a20.37689,20.37689,0,0,1-11.18232,8.67261v1.07485ZM464.1145,41.64162q1.86973-2.35881,1.87015-7.20725,0-4.84551-1.87015-7.14119Q462.24477,25.00209,458.025,25H426.85938V44H458.025Q462.24347,44,464.1145,41.64162Z"/></g></g></g></g></svg>