<svg xmlns="http://www.w3.org/2000/svg" xmlns:xlink="http://www.w3.org/1999/xlink" width="611.41449" height="95.779" viewBox="0 0 611.41449 95.779"><defs><style>.cls-1{fill:url(#linear-gradient);}.cls-2{fill:url(#linear-gradient-2);}.cls-3{fill:url(#linear-gradient-3);}.cls-4{fill:url(#linear-gradient-4);}.cls-5{fill:url(#linear-gradient-5);}.cls-6{fill:url(#linear-gradient-6);}.cls-7{fill:url(#linear-gradient-7);}.cls-8{fill:url(#linear-gradient-8);}.cls-9{fill:url(#linear-gradient-9);}.cls-10{fill:url(#linear-gradient-10);}.cls-11{fill:url(#linear-gradient-11);}.cls-12{fill:url(#linear-gradient-12);}</style><linearGradient id="linear-gradient" x1="70.778" y1="97.777" x2="70.778" y2="2.001" gradientTransform="matrix(1, 0, 0, -1, 0, 97.779)" gradientUnits="userSpaceOnUse"><stop offset="0" stop-color="#ff9ddb"/><stop offset="1" stop-color="#ffc8ff"/></linearGradient><linearGradient id="linear-gradient-2" x1="265.09387" y1="97.77833" x2="265.09387" y2="2.00185" xlink:href="#linear-gradient"/><linearGradient id="linear-gradient-3" x1="368.22255" y1="97.77833" x2="368.22255" y2="2.00185" xlink:href="#linear-gradient"/><linearGradient id="linear-gradient-4" x1="467.42448" y1="97.77833" x2="467.42448" y2="2.00189" xlink:href="#linear-gradient"/><linearGradient id="linear-gradient-5" x1="566.94485" y1="97.77833" x2="566.94485" y2="2.00185" xlink:href="#linear-gradient"/><linearGradient id="linear-gradient-6" x1="153.7965" y1="97.778" x2="153.7965" y2="2" xlink:href="#linear-gradient"/><linearGradient id="linear-gradient-7" x1="62.014" y1="2.003" x2="62.014" y2="97.779" gradientTransform="matrix(1, 0, 0, -1, 0, 97.779)" gradientUnits="userSpaceOnUse"><stop offset="0" stop-color="#ffbf00"/><stop offset="1" stop-color="#ff65ac"/></linearGradient><linearGradient id="linear-gradient-8" x1="256.33019" y1="2.00185" x2="256.33019" y2="97.77833" xlink:href="#linear-gradient-7"/><linearGradient id="linear-gradient-9" x1="359.45888" y1="2.00185" x2="359.45888" y2="97.77833" xlink:href="#linear-gradient-7"/><linearGradient id="linear-gradient-10" x1="458.6608" y1="2.00189" x2="458.6608" y2="97.77833" xlink:href="#linear-gradient-7"/><linearGradient id="linear-gradient-11" x1="558.18118" y1="2.00185" x2="558.18118" y2="97.77833" xlink:href="#linear-gradient-7"/><linearGradient id="linear-gradient-12" x1="145.033" y1="2" x2="145.033" y2="97.778" xlink:href="#linear-gradient-7"/></defs><g id="Layer_2" data-name="Layer 2"><g id="Layer_1-2" data-name="Layer 1"><g id="Layer_2-2" data-name="Layer 2"><g id="Layer_1-2-2" data-name="Layer 1-2"><polygon class="cls-1" points="102.414 0.002 74.028 59.789 71.464 65.187 70.609 65.187 61.533 46.147 57.012 36.654 44.101 9.584 39.579 0.092 39.534 0.002 8.764 0.002 8.809 0.092 13.509 9.584 26.938 36.654 31.65 46.147 56.258 95.778 85.308 95.778 132.792 0.002 102.414 0.002"/><path class="cls-2" d="M307.45282,24.54836H276.335V95.77715H253.95207V24.54836H222.73492V.00067h84.7179Z"/><path class="cls-3" d="M411.46494.00067V95.77715h-22.3816V58.75406H347.36176V95.77715h-22.3816V.00067h22.3816V35.14521h41.72158V.00067Z"/><path class="cls-4" d="M451.37387,36.62066h51.2435V56.87638h-51.2435V73.77811h54.48282v21.999H428.99228V.00067H504.7775V21.86534H451.37387Z"/><path class="cls-5" d="M611.41449,95.77715H585.3999L571.95142,65.05894H544.85681V95.77715H522.47522V.00067h59.68536q14.52686,0,21.008,7.78032,6.479,7.78075,6.47864,23.74236,0,12.20838-3.92652,18.44479a20.3834,20.3834,0,0,1-11.19079,8.65241V59.6929ZM582.995,40.91349q1.91409-2.41472,1.91448-7.37809,0-4.96038-1.91448-7.31048-1.914-2.34539-6.23383-2.34753H544.85681V43.32778h31.90436Q581.07963,43.32778,582.995,40.91349Z"/><polygon class="cls-6" points="204.818 73.778 138.688 73.778 147.083 56.876 201.578 56.876 201.578 36.621 157.144 36.621 164.472 21.865 203.738 21.865 203.738 0.001 150.335 0.001 150.335 0.003 138.373 24.084 129.189 42.592 118.173 64.773 110.146 80.933 102.775 95.779 127.761 95.779 127.762 95.777 204.818 95.777 204.818 73.778"/><polygon class="cls-7" points="93.65 0 65.264 59.787 62.7 65.186 61.845 65.186 52.769 46.145 48.248 36.653 35.337 9.582 30.816 0.09 30.771 0 0 0 0.045 0.09 4.746 9.582 18.174 36.653 22.887 46.145 47.495 95.776 76.544 95.776 124.028 0 93.65 0"/><path class="cls-8" d="M298.68915,24.54836H267.57129V95.77715H245.1884V24.54836H213.97124V.00067h84.71791Z"/><path class="cls-9" d="M402.70126.00067V95.77715H380.31967V58.75406H338.59808V95.77715H316.21649V.00067h22.38159V35.14521h41.72159V.00067Z"/><path class="cls-10" d="M442.6102,36.62066h51.2435V56.87638H442.6102V73.77811H497.093v21.999H420.22861V.00067h75.78521V21.86534H442.6102Z"/><path class="cls-11" d="M602.65082,95.77715H576.63623L563.18774,65.05894h-27.0946V95.77715H513.71155V.00067h59.68536q14.52685,0,21.008,7.78032,6.479,7.78075,6.47863,23.74236,0,12.20838-3.92651,18.44479a20.3834,20.3834,0,0,1-11.19079,8.65241V59.6929Zm-28.4195-54.86366q1.9141-2.41472,1.91449-7.37809,0-4.96038-1.91449-7.31048-1.914-2.34539-6.23382-2.34753H536.09314V43.32778h31.90442Q572.316,43.32778,574.23132,40.91349Z"/><polygon class="cls-12" points="196.054 73.778 129.925 73.778 138.319 56.876 192.814 56.876 192.814 36.621 148.38 36.621 155.709 21.865 194.974 21.865 194.974 0.001 141.571 0.001 141.571 0.003 129.61 24.084 120.425 42.592 109.41 64.773 101.382 80.933 94.012 95.779 118.997 95.779 118.998 95.777 196.054 95.777 196.054 73.778"/></g></g></g></g></svg>