<?xml version="1.0" encoding="utf-8"?>
<!-- Generator: Adobe Illustrator 25.2.3, SVG Export Plug-In . SVG Version: 6.00 Build 0)  -->
<svg version="1.1" id="Layer_1" xmlns="http://www.w3.org/2000/svg" xmlns:xlink="http://www.w3.org/1999/xlink" x="0px" y="0px"
	 viewBox="0 0 611.4144897 96" style="enable-background:new 0 0 611.4144897 96;" xml:space="preserve">
<style type="text/css">
	.st0{fill:none;}
	.st1{fill:url(#SVGID_1_);}
	.st2{fill:url(#SVGID_2_);}
	.st3{fill:url(#SVGID_3_);}
	.st4{fill:url(#SVGID_4_);}
	.st5{fill:url(#SVGID_5_);}
	.st6{fill:url(#SVGID_6_);}
	.st7{fill:url(#SVGID_7_);}
	.st8{fill:url(#SVGID_8_);}
	.st9{fill:url(#SVGID_9_);}
	.st10{fill:url(#SVGID_10_);}
	.st11{fill:url(#SVGID_11_);}
	.st12{fill:url(#SVGID_12_);}
</style>
<line class="st0" x1="118.7466736" y1="96" x2="118.3066788" y2="96"/>
<g>
	<linearGradient id="SVGID_1_" gradientUnits="userSpaceOnUse" x1="70.7776642" y1="0.1120921" x2="70.7776642" y2="95.8885727">
		<stop  offset="0" style="stop-color:#FF9DDB"/>
		<stop  offset="1" style="stop-color:#FFC8FF"/>
	</linearGradient>
	<polygon class="st1" points="102.4141159,0.1120921 74.0278244,59.8992195 71.4638214,65.2976685 70.6087952,65.2976685 
		61.5329628,46.2571716 57.0117874,36.7647667 44.1006165,9.6942549 39.5794411,0.2021144 39.5344048,0.1120921 
		8.7636709,0.1120921 8.8087091,0.2021144 13.5094471,9.6942549 26.9379101,36.7647667 31.6502018,46.2571716 
		56.2583389,95.8885727 85.3080063,95.8885727 132.7916565,0.1120921 	"/>
	<linearGradient id="SVGID_2_" gradientUnits="userSpaceOnUse" x1="265.0938721" y1="0.1111025" x2="265.0938721" y2="95.8875809">
		<stop  offset="0" style="stop-color:#FF9DDB"/>
		<stop  offset="1" style="stop-color:#FFC8FF"/>
	</linearGradient>
	<path class="st2" d="M307.4528198,24.6587944h-31.1178589v71.2287903h-22.3828888V24.6587944h-31.2171631V0.1111025h84.7179108
		V24.6587944z"/>
	<linearGradient id="SVGID_3_" gradientUnits="userSpaceOnUse" x1="368.2225647" y1="0.1111025" x2="368.2225647" y2="95.8875809">
		<stop  offset="0" style="stop-color:#FF9DDB"/>
		<stop  offset="1" style="stop-color:#FFC8FF"/>
	</linearGradient>
	<path class="st3" d="M411.4649353,0.1111025v95.7764816h-22.3815918V58.8644981h-41.7215881v37.0230827h-22.3815918V0.1111025
		h22.3815918v35.1445465h41.7215881V0.1111025H411.4649353z"/>
	<linearGradient id="SVGID_4_" gradientUnits="userSpaceOnUse" x1="467.424469" y1="0.1111025" x2="467.424469" y2="95.8875809">
		<stop  offset="0" style="stop-color:#FF9DDB"/>
		<stop  offset="1" style="stop-color:#FFC8FF"/>
	</linearGradient>
	<path class="st4" d="M451.3738708,36.7310944h51.2434998v20.2557182h-51.2434998v16.9017296h54.4828186v21.9990387h-76.8644104
		V0.1111025h75.7852173v21.8646736h-53.4036255V36.7310944z"/>
	<linearGradient id="SVGID_5_" gradientUnits="userSpaceOnUse" x1="566.9448242" y1="0.1111025" x2="566.9448242" y2="95.8875809">
		<stop  offset="0" style="stop-color:#FF9DDB"/>
		<stop  offset="1" style="stop-color:#FFC8FF"/>
	</linearGradient>
	<path class="st5" d="M611.4144897,95.8875809h-26.0145874L571.951416,65.1693802h-27.0946045v30.7182007h-22.3815918V0.1111025
		h59.6853638c9.6845703,0,16.6886597,2.5948682,21.0079956,7.7803254
		c4.3193359,5.1871691,6.4786377,13.1018581,6.4786377,23.7423592c0,8.1389179-1.3094482,14.2863255-3.9265747,18.444788
		c-2.617981,4.1584663-6.3485107,7.0426025-11.1907959,8.6524124v1.0723534L611.4144897,95.8875809z M582.9949951,41.023922
		c1.276062-1.6098099,1.9144897-4.0685997,1.9144897-7.3780861c0-3.3069153-0.6384277-5.7443123-1.9144897-7.3104744
		c-1.276001-1.5635967-3.3547974-2.3475342-6.2338257-2.3475342h-31.9043579v19.450386h31.9043579
		C579.6401978,43.4382133,581.7189941,42.6337357,582.9949951,41.023922z"/>
	<linearGradient id="SVGID_6_" gradientUnits="userSpaceOnUse" x1="153.7965851" y1="0.1111025" x2="153.7965851" y2="95.8895645">
		<stop  offset="0" style="stop-color:#FF9DDB"/>
		<stop  offset="1" style="stop-color:#FFC8FF"/>
	</linearGradient>
	<polygon class="st6" points="204.817749,73.8885422 138.6881866,73.8885422 147.0829468,56.9868126 201.5780029,56.9868126 
		201.5780029,36.7310944 157.1435699,36.7310944 164.47229,21.9757767 203.7376862,21.9757767 203.7376862,0.1111025 
		150.3349304,0.1111025 150.3349304,0.1133491 138.3734589,24.1939735 129.1891479,42.7028427 118.1732101,64.8836899 
		110.1457062,81.0438995 102.7754288,95.8895645 127.7606659,95.8895645 127.7616272,95.8875809 204.817749,95.8875809 	"/>
	<g>
		<linearGradient id="SVGID_7_" gradientUnits="userSpaceOnUse" x1="62.0139885" y1="95.8869171" x2="62.0139885" y2="0.1104369">
			<stop  offset="0" style="stop-color:#FFBF00"/>
			<stop  offset="1" style="stop-color:#FF65AC"/>
		</linearGradient>
		<polygon class="st7" points="93.650444,0.1104369 65.2641525,59.8975639 62.7001495,65.2960129 61.8451233,65.2960129 
			52.7692909,46.2555199 48.2481155,36.7631111 35.3369446,9.6925993 30.8157711,0.2004592 30.7707329,0.1104369 0,0.1104369 
			0.0450379,0.2004592 4.7457762,9.6925993 18.1742401,36.7631111 22.8865318,46.2555199 47.4946671,95.8869171 
			76.5443344,95.8869171 124.027977,0.1104369 		"/>
		<linearGradient id="SVGID_8_" gradientUnits="userSpaceOnUse" x1="256.3302002" y1="95.8875809" x2="256.3302002" y2="0.1111025">
			<stop  offset="0" style="stop-color:#FFBF00"/>
			<stop  offset="1" style="stop-color:#FF65AC"/>
		</linearGradient>
		<path class="st8" d="M298.6891479,24.6587944h-31.1178589v71.2287903h-22.3828888V24.6587944h-31.2171631V0.1111025h84.7179108
			V24.6587944z"/>
		<linearGradient id="SVGID_9_" gradientUnits="userSpaceOnUse" x1="359.4588928" y1="95.8875809" x2="359.4588928" y2="0.1111025">
			<stop  offset="0" style="stop-color:#FFBF00"/>
			<stop  offset="1" style="stop-color:#FF65AC"/>
		</linearGradient>
		<path class="st9" d="M402.7012634,0.1111025v95.7764816h-22.3815918V58.8644981h-41.7215881v37.0230827h-22.3815918V0.1111025
			h22.3815918v35.1445465h41.7215881V0.1111025H402.7012634z"/>
		
			<linearGradient id="SVGID_10_" gradientUnits="userSpaceOnUse" x1="458.6607971" y1="95.8875809" x2="458.6607971" y2="0.1111025">
			<stop  offset="0" style="stop-color:#FFBF00"/>
			<stop  offset="1" style="stop-color:#FF65AC"/>
		</linearGradient>
		<path class="st10" d="M442.610199,36.7310944h51.2434998v20.2557182H442.610199v16.9017296h54.4828186v21.9990387h-76.8644104
			V0.1111025h75.7852173v21.8646736H442.610199V36.7310944z"/>
		
			<linearGradient id="SVGID_11_" gradientUnits="userSpaceOnUse" x1="558.1811523" y1="95.8875809" x2="558.1811523" y2="0.1111025">
			<stop  offset="0" style="stop-color:#FFBF00"/>
			<stop  offset="1" style="stop-color:#FF65AC"/>
		</linearGradient>
		<path class="st11" d="M602.6508179,95.8875809h-26.0145874l-13.4484863-30.7182007h-27.0946045v30.7182007h-22.3815918V0.1111025
			h59.6853638c9.6845703,0,16.6886597,2.5948682,21.0079956,7.7803254
			c4.3193359,5.1871691,6.4786377,13.1018581,6.4786377,23.7423592c0,8.1389179-1.3094482,14.2863255-3.9265747,18.444788
			c-2.617981,4.1584663-6.3485107,7.0426025-11.1907959,8.6524124v1.0723534L602.6508179,95.8875809z M574.2313232,41.023922
			c1.276062-1.6098099,1.9144897-4.0685997,1.9144897-7.3780861c0-3.3069153-0.6384277-5.7443123-1.9144897-7.3104744
			c-1.276001-1.5635967-3.3547974-2.3475342-6.2338257-2.3475342h-31.9043579v19.450386h31.9043579
			C570.8765259,43.4382133,572.9553223,42.6337357,574.2313232,41.023922z"/>
		
			<linearGradient id="SVGID_12_" gradientUnits="userSpaceOnUse" x1="145.0329132" y1="95.8895645" x2="145.0329132" y2="0.1111025">
			<stop  offset="0" style="stop-color:#FFBF00"/>
			<stop  offset="1" style="stop-color:#FF65AC"/>
		</linearGradient>
		<polygon class="st12" points="196.0540771,73.8885422 129.9245148,73.8885422 138.3192749,56.9868126 192.8143463,56.9868126 
			192.8143463,36.7310944 148.3798981,36.7310944 155.7086182,21.9757767 194.9740143,21.9757767 194.9740143,0.1111025 
			141.5712585,0.1111025 141.5712585,0.1133491 129.609787,24.1939735 120.4254761,42.7028427 109.4095383,64.8836899 
			101.3820343,81.0438995 94.0117569,95.8895645 118.996994,95.8895645 118.9979553,95.8875809 196.0540771,95.8875809 		"/>
	</g>
</g>
</svg>
