<svg xmlns="http://www.w3.org/2000/svg" xmlns:xlink="http://www.w3.org/1999/xlink" viewBox="0 0 501.73 96"><defs><style>.cls-1{fill:url(#linear-gradient);}.cls-2{fill:url(#linear-gradient-2);}.cls-3{fill:url(#linear-gradient-3);}.cls-4{fill:url(#linear-gradient-4);}.cls-5{fill:url(#linear-gradient-5);}.cls-6{fill:url(#linear-gradient-6);}.cls-7{fill:url(#linear-gradient-7);}.cls-8{fill:url(#linear-gradient-8);}.cls-9{fill:url(#linear-gradient-9);}.cls-10{fill:url(#linear-gradient-10);}</style><linearGradient id="linear-gradient" x1="148.88" x2="148.88" y2="96" gradientUnits="userSpaceOnUse"><stop offset="0.42" stop-color="#26a4fe"/><stop offset="1" stop-color="#38e9fd"/></linearGradient><linearGradient id="linear-gradient-2" x1="71.15" x2="71.15" xlink:href="#linear-gradient"/><linearGradient id="linear-gradient-3" x1="256.94" x2="256.94" xlink:href="#linear-gradient"/><linearGradient id="linear-gradient-4" x1="356.36" x2="356.36" xlink:href="#linear-gradient"/><linearGradient id="linear-gradient-5" x1="457.3" x2="457.3" xlink:href="#linear-gradient"/><linearGradient id="linear-gradient-6" x1="139.88" y1="96" x2="139.88" gradientUnits="userSpaceOnUse"><stop offset="0.3" stop-color="#ff9ddb"/><stop offset="1" stop-color="#ffc8ff"/></linearGradient><linearGradient id="linear-gradient-7" x1="62.39" x2="62.39" xlink:href="#linear-gradient-6"/><linearGradient id="linear-gradient-8" x1="247.94" x2="247.94" xlink:href="#linear-gradient-6"/><linearGradient id="linear-gradient-9" x1="347.36" x2="347.36" xlink:href="#linear-gradient-6"/><linearGradient id="linear-gradient-10" x1="448.3" x2="448.3" xlink:href="#linear-gradient-6"/></defs><g id="Layer_2" data-name="Layer 2"><g id="Layer_1-2" data-name="Layer 1"><path class="cls-1" d="M150.66,0,102.89,96H126l8.86-19h39V96h21V0Zm23.2,57H145l16.32-35h12.52Z"/><path class="cls-2" d="M40.92.09,40.87,0H8.76l0,.09L13.71,10H45.63ZM103.32,0,74.58,60.53,72,66h-.53L62.23,46.65,57.63,37H27.72l4.7,9.47L57,96H86L133.54,0ZM52.65,28l-4.3-9H19.55L24,28Z"/><path class="cls-3" d="M291.23,11.29Q301,22.59,301,48t-9.74,36.77Q281.55,96,261.66,96h-48.8V0h48.8Q281.45,0,291.23,11.29ZM234.86,24V73h21.28q9.94,0,14.92-5.79t5-18.71q0-12.93-5-18.71T256.14,24Z"/><polygon class="cls-4" points="339.86 37 390.86 37 390.86 57 340.86 57 340.86 74 394.86 74 394.86 96 317.86 96 317.86 0 392.86 0 392.86 22 339.86 22 339.86 37"/><path class="cls-5" d="M501.73,96h-26L462.2,65H434.86V96h-22V0H472.5q14.52,0,21,7.8T500,31.6q0,12.23-3.93,18.48a20.38,20.38,0,0,1-11.18,8.68v1.07ZM472.11,41.64Q474,39.28,474,34.43t-1.87-7.14C470.87,25.77,468.84,25,466,25H434.86V44H466Q470.25,44,472.11,41.64Z"/><path class="cls-6" d="M141.66,0,93.89,96H117l8.86-19h39V96h21V0Zm23.2,57H136l16.32-35h12.52Z"/><path class="cls-7" d="M32.16.09l0-.09H0L.05.09,5,10H36.88ZM94.56,0,65.82,60.53,63.23,66H62.7L53.47,46.65,48.88,37H19l4.71,9.47L48.22,96h29l47.6-96ZM43.89,28,39.6,19H10.8l4.46,9Z"/><path class="cls-8" d="M282.23,11.29Q292,22.59,292,48t-9.74,36.77Q272.55,96,252.66,96h-48.8V0h48.8Q272.45,0,282.23,11.29ZM225.86,24V73h21.28q9.95,0,14.92-5.79t5-18.71q0-12.93-5-18.71T247.14,24Z"/><polygon class="cls-9" points="331.86 37 382.86 37 382.86 57 331.86 57 331.86 74 385.86 74 385.86 96 308.86 96 308.86 0 384.86 0 384.86 22 331.86 22 331.86 37"/><path class="cls-10" d="M492.73,96h-25L454.2,65H426.86V96h-23V0H463.5q14.52,0,21,7.8T491,31.6q0,12.23-3.93,18.48a20.38,20.38,0,0,1-11.18,8.68v1.07ZM464.11,41.64Q466,39.28,466,34.43t-1.87-7.14C462.87,25.77,460.84,25,458,25H426.86V44H458Q462.25,44,464.11,41.64Z"/></g></g></svg>